HIERARCHY
ROOT Root
{
	OFFSET 0.00000 0.00000 0.00000
	CHANNELS 6 Xposition Yposition Zposition Zrotation Xrotation Yrotation
	JOINT Hip
	{
		OFFSET 0 0 0	
		CHANNELS 3 Zrotation Xrotation Yrotation
		JOINT Tummy
		{
			OFFSET 0 0.04 0	
			CHANNELS 3 Zrotation Xrotation Yrotation
			JOINT ChestBottom
			{
				OFFSET 0 0.194 0	
				CHANNELS 3 Zrotation Xrotation Yrotation
				JOINT ChestTop
				{
					OFFSET 0 0.166 0	
					CHANNELS 3 Zrotation Xrotation Yrotation
					JOINT LeftCollar
					{
						OFFSET 0 0.1 0	
						CHANNELS 3 Zrotation Xrotation Yrotation
						JOINT LeftUpperArm
						{
							OFFSET 0.156 -0.02 0.03	
							CHANNELS 3 Zrotation Xrotation Yrotation
							JOINT LeftForeArm
							{
								OFFSET 0.035 -0.27 -0.01	
								CHANNELS 3 Zrotation Xrotation Yrotation
								JOINT LeftHand
								{
									OFFSET 0.01 -0.27 0.01	
									CHANNELS 3 Zrotation Xrotation Yrotation
									End Site
									{
										OFFSET 0 -0.15 0
									}
								}
							}
						}
					}
					JOINT RightCollar
					{
						OFFSET 0 0.1 0	
						CHANNELS 3 Zrotation Xrotation Yrotation
						JOINT RightUpperArm
						{
							OFFSET -0.156 -0.02 0.03	
							CHANNELS 3 Zrotation Xrotation Yrotation
							JOINT RightForeArm
							{
								OFFSET -0.035 -0.27 -0.01	
								CHANNELS 3 Zrotation Xrotation Yrotation
								JOINT RightHand
								{
									OFFSET -0.01 -0.27 0.01	
									CHANNELS 3 Zrotation Xrotation Yrotation
									End Site
									{
										OFFSET 0 -0.15 0
									}
								}
							}
						}
					}
					JOINT Neck
					{
						OFFSET 0 0.1 0	
						CHANNELS 3 Zrotation Xrotation Yrotation
						JOINT Head
						{
							OFFSET 0 0.127 0.03	
							CHANNELS 3 Zrotation Xrotation Yrotation
							End Site
							{
								OFFSET 0 0.127 0.03
							}
						}
					}
				}
			}
		}
	}
	JOINT LeftHip
	{
		OFFSET 0 0 0	
		CHANNELS 3 Zrotation Xrotation Yrotation
		JOINT LeftThigh
		{
			OFFSET 0.088 -0.06 0	
			CHANNELS 3 Zrotation Xrotation Yrotation
			JOINT LeftLowerLeg
			{
				OFFSET 0 -0.39 0.02	
				CHANNELS 3 Zrotation Xrotation Yrotation
				JOINT LeftFootTop
				{
					OFFSET 0 -0.43 -0.02	
					CHANNELS 3 Zrotation Xrotation Yrotation
					JOINT LeftFootFront
					{
						OFFSET 0 -0.07 0.085	
						CHANNELS 3 Zrotation Xrotation Yrotation
						End Site
						{
							OFFSET 0 -0.005 0.09
						}
					}
				}
				JOINT LeftHeel
				{
					OFFSET 0 -0.43 -0.02	
					CHANNELS 3 Zrotation Xrotation Yrotation
					End Site
					{
						OFFSET 0 -0.075 -0.05
					}
				}
			}
		}
	}
	JOINT RightHip
	{
		OFFSET 0 0 0	
		CHANNELS 3 Zrotation Xrotation Yrotation
		JOINT RightThigh
		{
			OFFSET -0.088 -0.06 0	
			CHANNELS 3 Zrotation Xrotation Yrotation
			JOINT RightLowerLeg
			{
				OFFSET 0 -0.39 0.02	
				CHANNELS 3 Zrotation Xrotation Yrotation
				JOINT RightFootTop
				{
					OFFSET 0 -0.43 -0.02	
					CHANNELS 3 Zrotation Xrotation Yrotation
					JOINT RightFootFront
					{
						OFFSET 0 -0.07 0.085	
						CHANNELS 3 Zrotation Xrotation Yrotation
						End Site
						{
							OFFSET 0 -0.005 0.09
						}
					}
				}
				JOINT RightHeel
				{
					OFFSET 0 -0.43 -0.02	
					CHANNELS 3 Zrotation Xrotation Yrotation
					End Site
					{
						OFFSET 0 -0.075 -0.05
					}
				}
			}
		}
	}
}
MOTION
Frames: 22
Frame Time: 0.025
0 0.95825 0 -0 0 -0 0.89754 1.5221 -2.0624 -0.33076 -1.2494 0.088434 -0.33076 -1.2494 0.088434 -0.27796 -1.0495 0.074767 -0 0 -0 -1.589 3.7693 8.2717 -3.5377 -5.0565 -0.55717 -0 0 -0 -0 0 -0 0.047292 4.2194 -4.5183 5.8937 -9.2405 -13.752 -0 0 -0 1.4573 1.5606 -5.9792 1.4573 1.5606 -5.9792 0.89754 1.5221 -2.0624 -0.95849 -2.0428 0.48152 0.43156 2.3448 -0.88837 -0 0 -0 -0 0 -0 -0 0 -0 0.89754 1.5221 -2.0624 -0.65733 -1.4191 0.73327 -0.52426 -0.96611 0.47194 -0 0 -0 -0 0 -0 -0 0 -0 
0 0.95825 0 -0 0 -0 0.89998 1.5227 -2.0476 -0.32993 -1.2593 0.072851 -0.32993 -1.2593 0.072851 -0.27724 -1.0578 0.061681 -0 0 -0 -1.576 3.7822 8.2623 -3.6117 -5.0881 -0.4993 -0 0 -0 -0 0 -0 0.057558 4.2288 -4.5415 5.9049 -9.2317 -13.734 -0 0 -0 1.4313 1.5416 -6.0253 1.4313 1.5416 -6.0253 0.89998 1.5227 -2.0476 -0.96191 -2.0342 0.46605 0.42907 2.3538 -0.88664 -0 0 -0 -0 0 -0 -0 0 -0 0.89998 1.5227 -2.0476 -0.65435 -1.4122 0.73256 -0.52631 -0.94432 0.4675 -0 0 -0 -0 0 -0 -0 0 -0 
0 0.95825 0 -0 0 -0 0.90349 1.5236 -2.027 -0.33116 -1.278 0.049498 -0.33116 -1.278 0.049498 -0.27824 -1.0735 0.042074 -0 0 -0 -1.5322 3.8091 8.2469 -3.7285 -5.1217 -0.40598 -0 0 -0 -0 0 -0 0.076913 4.2558 -4.5674 5.9213 -9.2196 -13.71 -0 0 -0 1.399 1.5223 -6.0883 1.399 1.5223 -6.0883 0.90349 1.5236 -2.027 -0.96596 -2.0219 0.44542 0.42508 2.3659 -0.88539 -0 0 -0 -0 0 -0 -0 0 -0 0.90349 1.5236 -2.027 -0.65002 -1.4033 0.73167 -0.52674 -0.90837 0.46004 -0 0 -0 -0 0 -0 -0 0 -0 
0 0.95825 0 -0 0 -0 0.90725 1.5254 -2.0064 -0.3363 -1.3021 0.023516 -0.3363 -1.3021 0.023516 -0.28252 -1.0938 0.020266 -0 0 -0 -1.4478 3.8401 8.2339 -3.8709 -5.1387 -0.30834 -0 0 -0 -0 0 -0 0.10549 4.2949 -4.5861 5.939 -9.2046 -13.691 -0 0 -0 1.3734 1.5053 -6.1466 1.3734 1.5053 -6.1466 0.90725 1.5254 -2.0064 -0.96805 -2.0085 0.42593 0.42011 2.3801 -0.88793 -0 0 -0 -0 0 -0 -0 0 -0 0.90725 1.5254 -2.0064 -0.64537 -1.3967 0.73086 -0.52433 -0.86451 0.45237 -0 0 -0 -0 0 -0 -0 0 -0 
0 0.95825 0 -0 0 -0 0.91073 1.5297 -1.9888 -0.34441 -1.3281 -0.0037992 -0.34441 -1.3281 -0.003799 -0.28929 -1.1156 -0.0026551 -0 0 -0 -1.3331 3.8607 8.2371 -4.0311 -5.1356 -0.22798 -0 0 -0 -0 0 -0 0.13867 4.3314 -4.5996 5.9573 -9.1817 -13.675 -0 0 -0 1.3608 1.4853 -6.1878 1.3608 1.4853 -6.1878 0.91073 1.5297 -1.9888 -0.96638 -1.9945 0.40786 0.4141 2.3959 -0.89483 -0 0 -0 -0 0 -0 -0 0 -0 0.91073 1.5297 -1.9888 -0.6412 -1.3947 0.72867 -0.52289 -0.83263 0.44552 -0 0 -0 -0 0 -0 -0 0 -0 
0 0.95825 0 -0 0 -0 0.91338 1.5369 -1.9752 -0.35353 -1.3549 -0.032409 -0.35353 -1.3549 -0.032408 -0.29691 -1.1381 -0.02666 -0 0 -0 -1.2072 3.8685 8.2633 -4.1986 -5.1173 -0.17119 -0 0 -0 -0 0 -0 0.16722 4.36 -4.6159 5.9785 -9.1489 -13.655 -0 0 -0 1.3619 1.4622 -6.2064 1.3619 1.4622 -6.2064 0.91338 1.5369 -1.9752 -0.96148 -1.9802 0.38825 0.40685 2.4029 -0.89954 -0 0 -0 -0 0 -0 -0 0 -0 0.91338 1.5369 -1.9752 -0.63799 -1.395 0.72254 -0.52033 -0.81075 0.44398 -0 0 -0 -0 0 -0 -0 0 -0 
0 0.95825 0 -0 0 -0 0.91601 1.5464 -1.9659 -0.3629 -1.3819 -0.06057 -0.3629 -1.3819 -0.06057 -0.30472 -1.1608 -0.050289 -0 0 -0 -1.0862 3.872 8.3063 -4.3591 -5.0928 -0.14977 -0 0 -0 -0 0 -0 0.18838 4.3824 -4.6461 6.0008 -9.1132 -13.621 -0 0 -0 1.3742 1.4383 -6.2068 1.3742 1.4383 -6.2068 0.91601 1.5464 -1.9659 -0.95608 -1.9667 0.36785 0.3997 2.4066 -0.90169 -0 0 -0 -0 0 -0 -0 0 -0 0.91601 1.5464 -1.9659 -0.63447 -1.3939 0.71695 -0.51653 -0.79325 0.44474 -0 0 -0 -0 0 -0 -0 0 -0 
0 0.95825 0 -0 0 -0 0.91907 1.5573 -1.9621 -0.37223 -1.4115 -0.085764 -0.37223 -1.4115 -0.085764 -0.31252 -1.1857 -0.071423 -0 0 -0 -0.98442 3.8857 8.3576 -4.4956 -5.0671 -0.1708 -0 0 -0 -0 0 -0 0.20454 4.4093 -4.6959 6.0201 -9.0835 -13.573 -0 0 -0 1.393 1.4187 -6.199 1.393 1.4187 -6.199 0.91907 1.5573 -1.9621 -0.95102 -1.9538 0.35287 0.39365 2.4134 -0.90645 -0 0 -0 -0 0 -0 -0 0 -0 0.91907 1.5573 -1.9621 -0.62827 -1.389 0.71755 -0.51476 -0.77896 0.44492 -0 0 -0 -0 0 -0 -0 0 -0 
0 0.95825 0 -0 0 -0 0.92162 1.5672 -1.9635 -0.37998 -1.4455 -0.11253 -0.37998 -1.4455 -0.11253 -0.31898 -1.2142 -0.09388 -0 0 -0 -0.91779 3.9194 8.4268 -4.5971 -5.0458 -0.21638 -0 0 -0 -0 0 -0 0.21201 4.4492 -4.745 6.0365 -9.0625 -13.519 -0 0 -0 1.4094 1.4069 -6.1837 1.4094 1.4069 -6.1837 0.92162 1.5672 -1.9635 -0.94538 -1.9381 0.34591 0.38973 2.4214 -0.91403 -0 0 -0 -0 0 -0 -0 0 -0 0.92162 1.5672 -1.9635 -0.62049 -1.3787 0.71968 -0.51378 -0.76612 0.44973 -0 0 -0 -0 0 -0 -0 0 -0 
0 0.95825 0 -0 0 -0 0.92362 1.5735 -1.9681 -0.38713 -1.4764 -0.13969 -0.38713 -1.4764 -0.13969 -0.32494 -1.2403 -0.11667 -0 0 -0 -0.86599 3.9532 8.4888 -4.6839 -5.0306 -0.24241 -0 0 -0 -0 0 -0 0.2151 4.4837 -4.7887 6.0481 -9.0499 -13.471 -0 0 -0 1.4217 1.3938 -6.1676 1.4217 1.3938 -6.1676 0.92362 1.5735 -1.9681 -0.93919 -1.9163 0.34294 0.38837 2.4266 -0.92094 -0 0 -0 -0 0 -0 -0 0 -0 0.92362 1.5735 -1.9681 -0.61399 -1.3638 0.7175 -0.51106 -0.75164 0.46132 -0 0 -0 -0 0 -0 -0 0 -0 
0 0.95825 0 -0 0 -0 0.92582 1.5763 -1.9744 -0.39415 -1.4974 -0.16179 -0.39415 -1.4974 -0.16179 -0.33079 -1.2579 -0.13521 -0 0 -0 -0.8067 3.9661 8.5061 -4.7781 -5.0197 -0.20791 -0 0 -0 -0 0 -0 0.21776 4.4965 -4.8357 6.051 -9.0471 -13.439 -0 0 -0 1.4324 1.3696 -6.1614 1.4324 1.3696 -6.1614 0.92582 1.5763 -1.9744 -0.93278 -1.8902 0.34093 0.38842 2.4289 -0.9253 -0 0 -0 -0 0 -0 -0 0 -0 0.92582 1.5763 -1.9744 -0.60846 -1.3485 0.71398 -0.50839 -0.73255 0.47289 -0 0 -0 -0 0 -0 -0 0 -0 
0 0.95825 0 -0 0 -0 0.92737 1.5761 -1.9817 -0.40154 -1.5113 -0.17911 -0.40154 -1.5113 -0.17911 -0.33696 -1.2696 -0.14974 -0 0 -0 -0.74528 3.9702 8.4879 -4.8731 -5.0178 -0.10877 -0 0 -0 -0 0 -0 0.22105 4.4964 -4.8835 6.0464 -9.0522 -13.428 -0 0 -0 1.4462 1.3385 -6.1658 1.4462 1.3385 -6.1658 0.92737 1.5761 -1.9817 -0.9254 -1.8632 0.34087 0.38923 2.4322 -0.92897 -0 0 -0 -0 0 -0 -0 0 -0 0.92737 1.5761 -1.9817 -0.60085 -1.3359 0.71252 -0.5084 -0.70843 0.47992 -0 0 -0 -0 0 -0 -0 0 -0 
0 0.95825 0 -0 0 -0 0.92682 1.5727 -1.9895 -0.41205 -1.5216 -0.19323 -0.41205 -1.5216 -0.19323 -0.34576 -1.2782 -0.16157 -0 0 -0 -0.68569 3.9797 8.4628 -4.9578 -5.0299 0.025667 -0 0 -0 -0 0 -0 0.23237 4.4909 -4.9316 6.0378 -9.0566 -13.432 -0 0 -0 1.4663 1.3078 -6.178 1.4663 1.3078 -6.178 0.92682 1.5727 -1.9895 -0.91639 -1.8355 0.34273 0.39036 2.4376 -0.93181 -0 0 -0 -0 0 -0 -0 0 -0 0.92682 1.5727 -1.9895 -0.5912 -1.325 0.71042 -0.50864 -0.68131 0.48653 -0 0 -0 -0 0 -0 -0 0 -0 
0 0.95825 0 -0 0 -0 0.92461 1.567 -1.9981 -0.42506 -1.5328 -0.20575 -0.42506 -1.5328 -0.20575 -0.35667 -1.2876 -0.17206 -0 0 -0 -0.6231 3.9981 8.4561 -5.0373 -5.0457 0.14702 -0 0 -0 -0 0 -0 0.24933 4.4917 -4.9765 6.028 -9.0547 -13.445 -0 0 -0 1.4866 1.2826 -6.1916 1.4866 1.2826 -6.1916 0.92461 1.567 -1.9981 -0.90633 -1.8069 0.34731 0.39135 2.4432 -0.93328 -0 0 -0 -0 0 -0 -0 0 -0 0.92461 1.567 -1.9981 -0.58115 -1.314 0.70859 -0.50633 -0.65374 0.49385 -0 0 -0 -0 0 -0 -0 0 -0 
0 0.95825 0 -0 0 -0 0.92263 1.5606 -2.0061 -0.43849 -1.5492 -0.21745 -0.43849 -1.5492 -0.21745 -0.36792 -1.3014 -0.18185 -0 0 -0 -0.5423 4.0266 8.4656 -5.1317 -5.0526 0.22855 -0 0 -0 -0 0 -0 0.26724 4.5111 -5.0183 6.0162 -9.047 -13.461 -0 0 -0 1.5035 1.2663 -6.2005 1.5035 1.2663 -6.2005 0.92263 1.5606 -2.0061 -0.8964 -1.7775 0.35487 0.39195 2.4456 -0.93612 -0 0 -0 -0 0 -0 -0 0 -0 0.92263 1.5606 -2.0061 -0.5705 -1.3011 0.70777 -0.50327 -0.62878 0.50011 -0 0 -0 -0 0 -0 -0 0 -0 
0 0.95825 0 -0 0 -0 0.92275 1.5563 -2.0093 -0.45065 -1.5685 -0.22762 -0.45065 -1.5685 -0.22762 -0.37811 -1.3176 -0.19036 -0 0 -0 -0.44123 4.0577 8.4726 -5.2486 -5.0505 0.27886 -0 0 -0 -0 0 -0 0.28058 4.5391 -5.0685 6.0057 -9.0336 -13.475 -0 0 -0 1.5173 1.2527 -6.2043 1.5173 1.2527 -6.2043 0.92275 1.5563 -2.0093 -0.8881 -1.7487 0.36161 0.39084 2.4428 -0.9408 -0 0 -0 -0 0 -0 -0 0 -0 0.92275 1.5563 -2.0093 -0.56035 -1.2867 0.70541 -0.50105 -0.60834 0.50644 -0 0 -0 -0 0 -0 -0 0 -0 
0 0.95825 0 -0 0 -0 0.92556 1.5562 -2.0067 -0.46165 -1.587 -0.23519 -0.46165 -1.587 -0.23519 -0.38733 -1.3332 -0.19669 -0 0 -0 -0.33421 4.0837 8.4725 -5.3726 -5.0429 0.31432 -0 0 -0 -0 0 -0 0.28728 4.5619 -5.1361 6.002 -9.0146 -13.482 -0 0 -0 1.5298 1.2365 -6.2034 1.5298 1.2365 -6.2034 0.92556 1.5562 -2.0067 -0.88222 -1.7225 0.36303 0.38792 2.4353 -0.94426 -0 0 -0 -0 0 -0 -0 0 -0 0.92556 1.5562 -2.0067 -0.55526 -1.2741 0.7007 -0.4963 -0.59124 0.51599 -0 0 -0 -0 0 -0 -0 0 -0 
0 0.95825 0 -0 0 -0 0.93068 1.5605 -1.9999 -0.4733 -1.6038 -0.24014 -0.4733 -1.6038 -0.24014 -0.3971 -1.3473 -0.20081 -0 0 -0 -0.22697 4.1001 8.4716 -5.4921 -5.0285 0.34551 -0 0 -0 -0 0 -0 0.29604 4.5773 -5.2188 6.0004 -8.9904 -13.476 -0 0 -0 1.5429 1.2133 -6.1946 1.5429 1.2133 -6.1946 0.93068 1.5605 -1.9999 -0.87786 -1.7001 0.35848 0.38394 2.425 -0.94668 -0 0 -0 -0 0 -0 -0 0 -0 0.93068 1.5605 -1.9999 -0.55576 -1.2641 0.69282 -0.48782 -0.57608 0.53077 -0 0 -0 -0 0 -0 -0 0 -0 
0 0.95825 0 -0 0 -0 0.93741 1.5681 -1.9903 -0.48637 -1.6203 -0.24199 -0.48637 -1.6203 -0.24199 -0.40807 -1.3612 -0.20233 -0 0 -0 -0.12224 4.107 8.4682 -5.6004 -5.0032 0.38133 -0 0 -0 -0 0 -0 0.31329 4.5912 -5.3118 5.995 -8.9613 -13.459 -0 0 -0 1.5557 1.1855 -6.1791 1.5557 1.1855 -6.1791 0.93741 1.5681 -1.9903 -0.87399 -1.6821 0.35073 0.37927 2.415 -0.94913 -0 0 -0 -0 0 -0 -0 0 -0 0.93741 1.5681 -1.9903 -0.56096 -1.2588 0.68328 -0.47534 -0.56057 0.54779 -0 0 -0 -0 0 -0 -0 0 -0 
0 0.95825 0 -0 0 -0 0.94408 1.5769 -1.9782 -0.49885 -1.6382 -0.24155 -0.49885 -1.6382 -0.24155 -0.41855 -1.3763 -0.20193 -0 0 -0 -0.033038 4.1108 8.4623 -5.6859 -4.966 0.4156 -0 0 -0 -0 0 -0 0.33372 4.6089 -5.4092 5.9884 -8.9268 -13.437 -0 0 -0 1.5652 1.173 -6.1667 1.5652 1.173 -6.1668 0.94408 1.5769 -1.9782 -0.87067 -1.6671 0.34424 0.37668 2.4076 -0.9517 -0 0 -0 -0 0 -0 -0 0 -0 0.94408 1.5769 -1.9782 -0.56647 -1.2564 0.67669 -0.46198 -0.54408 0.56229 -0 0 -0 -0 0 -0 -0 0 -0 
0 0.95825 0 -0 0 -0 0.94974 1.586 -1.9634 -0.50797 -1.6581 -0.24037 -0.50797 -1.6581 -0.24037 -0.42621 -1.3929 -0.20091 -0 0 -0 0.020368 4.1204 8.4658 -5.7358 -4.9234 0.42645 -0 0 -0 -0 0 -0 0.34867 4.6326 -5.5039 5.9863 -8.8882 -13.417 -0 0 -0 1.5704 1.1722 -6.1578 1.5704 1.1722 -6.1578 0.94974 1.586 -1.9634 -0.86796 -1.6542 0.34115 0.37684 2.4026 -0.95547 -0 0 -0 -0 0 -0 -0 0 -0 0.94974 1.586 -1.9634 -0.56902 -1.2548 0.67497 -0.45058 -0.52538 0.57299 -0 0 -0 -0 0 -0 -0 0 -0 
0 0.95825 0 -0 0 -0 0.95453 1.5967 -1.9446 -0.514 -1.6794 -0.23907 -0.514 -1.6794 -0.23907 -0.43126 -1.4108 -0.19979 -0 0 -0 0.030748 4.139 8.4876 -5.7449 -4.883 0.40508 -0 0 -0 -0 0 -0 0.36046 4.6636 -5.5929 5.9888 -8.8495 -13.399 -0 0 -0 1.5715 1.1747 -6.1506 1.5715 1.1747 -6.1506 0.95453 1.5967 -1.9446 -0.86566 -1.6463 0.33885 0.37861 2.4012 -0.96057 -0 0 -0 -0 0 -0 -0 0 -0 0.95453 1.5967 -1.9446 -0.57048 -1.2559 0.67061 -0.43917 -0.50254 0.58517 -0 0 -0 -0 0 -0 -0 0 -0 
